<svg width="1052" height="426" viewBox="0 0 1052 426" class="keymap" xmlns="http://www.w3.org/2000/svg" xmlns:xlink="http://www.w3.org/1999/xlink">
<defs/>/* end glyphs */
<style>/* inherit to force styles through use tags */
svg path {
    fill: inherit;
}

/* font and background color specifications */
svg.keymap {
    font-family: SFMono-Regular,Consolas,Liberation Mono,Menlo,monospace;
    font-size: 14px;
    font-kerning: normal;
    text-rendering: optimizeLegibility;
    fill: #24292e;
}

/* default key styling */
rect.key {
    fill: #f6f8fa;
}

rect.key, rect.combo {
    stroke: #c9cccf;
    stroke-width: 1;
}

/* default key side styling, only used is draw_key_sides is set */
rect.side {
    filter: brightness(90%);
}

/* color accent for combo boxes */
rect.combo, rect.combo-separate {
    fill: #cdf;
}

/* color accent for held keys */
rect.held, rect.combo.held {
    fill: #fdd;
}

/* color accent for ghost (optional) keys */
rect.ghost, rect.combo.ghost {
    stroke-dasharray: 4, 4;
    stroke-width: 2;
}

text {
    text-anchor: middle;
    dominant-baseline: middle;
}

/* styling for layer labels */
text.label {
    font-weight: bold;
    text-anchor: start;
    stroke: white;
    stroke-width: 4;
    paint-order: stroke;
}

/* styling for optional footer */
text.footer {
    text-anchor: end;
    dominant-baseline: auto;
    stroke: white;
    stroke-width: 4;
    paint-order: stroke;
}

/* styling for combo tap, and key non-tap label text */
text.combo, text.hold, text.shifted, text.left, text.right, text.tl, text.tr, text.bl, text.br {
    font-size: 11px;
}

text.hold, text.bl, text.br {
    text-anchor: middle;
    dominant-baseline: auto;
}

text.shifted, text.tl, text.tr {
    text-anchor: middle;
    dominant-baseline: hanging;
}

text.left, text.tl, text.bl {
    text-anchor: start;
}

text.right, text.tr, text.br {
    text-anchor: end;
}

text.layer-activator {
    text-decoration: underline;
}

/* styling for hold/shifted label text in combo box */
text.combo.hold, text.combo.shifted, text.combo.left, text.combo.right {
    font-size: 8px;
}

/* lighter symbol for transparent keys */
text.trans {
    fill: #7b7e81;
}

/* styling for combo dendrons */
path.combo {
    stroke-width: 1;
    stroke: gray;
    fill: none;
}

/* Start Tabler Icons Cleanup */
/* cannot use height/width with glyphs */
.icon-tabler > path {
    fill: inherit;
    stroke: inherit;
    stroke-width: 2;
}
/* hide tabler's default box */
.icon-tabler > path[stroke="none"][fill="none"] {
    visibility: hidden;
}
/* End Tabler Icons Cleanup */

@media (prefers-color-scheme: dark) {
svg.keymap { fill: #d1d6db; }
rect.key { fill: #3f4750; }
rect.key, rect.combo { stroke: #60666c; }
rect.combo, rect.combo-separate { fill: #1f3d7a; }
rect.held, rect.combo.held { fill: #854747; }
text.label, text.footer { stroke: black; }
text.trans { fill: #7e8184; }
path.combo { stroke: #7f7f7f; }

}
svg.keymap {
  font-family: -apple-system, "SF Pro Text", "Segoe UI", Inter, Helvetica, Arial, sans-serif;
  font-size: 14px;
  background-color: #ffffff;
  fill: #1f2328;
  color: #1f2328;  /* icon glyphs stroke with currentColor */
}
rect.key { fill: #f7f8fa; }
rect.key, rect.combo { stroke: #d5d9df; stroke-width: 1.2; }
rect.side { filter: brightness(96%); }
/* thumb/layer keys that activate the drawn layer */
rect.held, rect.combo.held { fill: #e6dcff; stroke: #a78bfa; }
/* combos: one outline around the whole group of keys that triggers them,
   and a legend saying what it does over the keystroke it sends */
path.combo-outline { stroke: #d99a07; stroke-width: 1.4; fill: none; }
rect.combo { fill: #fdf6e3; stroke: #d99a07; stroke-width: 1.4; }
text.combo.tap { font-size: 12px; transform: translateY(-4px); }
text.combo.hold { font-size: 11px; fill: #9a8347; transform: translateY(-5px); }
path.combo-leader { stroke: #d99a07; stroke-width: 1.4; fill: none; }
/* knobs get the same treatment as combos, in green */
.knob rect.combo { fill: #eefaf3; stroke: #2f9e63; }
path.combo-leader.knob { stroke: #2f9e63; }
/* the knob card is taller than combo_h, which is what positions these,
   so each line is pushed back out to its own edge */
.knob text.combo.shifted { fill: #4c8168; font-size: 10px; transform: translateY(-5px); }
.knob text.combo.hold { fill: #4c8168; font-size: 10px; font-weight: 400; transform: translateY(5px); }
.knob text.combo.tap { transform: translateY(3px); }
/* what a key does on hold, in the bottom-right corner ... */
text.br { fill: #7c3aed; font-weight: 600; font-size: 12px; transform: translate(-3px, -3px); }
/* ... and what it is for, bottom-left */
text.bl { fill: #939aa3; font-size: 10.5px; transform: translate(3px, -3px); }
/* rotary encoders: round the keycap into a knob, and pull the clockwise /
   counter-clockwise legends off its edge */
rect.encoder { rx: 50%; ry: 50%; fill: #e9f7f0; }
rect.encoder.side { stroke: #2f9e63; stroke-width: 1.6; fill: #d9efe4; }
/* the Cirque trackpad: not a key, drawn as its own round pad */
rect.trackpad { rx: 50%; ry: 50%; }
rect.trackpad.side { stroke: #c2508a; stroke-width: 1.6; }
.pad rect.combo { fill: #fdf0f6; stroke: #c2508a; }
path.combo-leader.pad { stroke: #c2508a; }
.pad text.combo.hold { fill: #a4677f; font-weight: 400; }
/* note cards: a scheme shared by a group of keys, stated once beside them */
.note rect.combo { fill: #eef3fd; stroke: #3b6fd4; }
path.combo-outline.note, path.combo-leader.note { stroke: #3b6fd4; }
/* class rules, not text-anchor attributes: the sheet sets text-anchor on
   every `text` and a presentation attribute cannot outrank it */
.note text.note-title { font-size: 12.5px; font-weight: 600; letter-spacing: 0.01em; }
.note text.note-label { font-size: 11.5px; fill: #5a6373; text-anchor: start; }
.note text.note-chord { font-size: 11.5px; fill: #3b6fd4; font-weight: 600; text-anchor: end; }
.note text.note-mark { font-size: 10px; text-anchor: middle; }
.note text.note-mark.tap { fill: #3b6fd4; }
.note text.note-mark.hold { fill: #7c3aed; }
.note path.note-rule { stroke: #3b6fd4; stroke-width: 0.8; opacity: 0.35; }
.note text.note-key { font-size: 10px; fill: #8a93a3; letter-spacing: 0.03em; }
text.encoder.shifted { transform: translateY(4px); }
text.encoder.hold { transform: translateY(-4px); }
text.hold { fill: #7c3aed; font-weight: 600; }
text.shifted { fill: #7c7f88; font-size: 10.5px; transform: translateY(3px); }
text.trans { fill: #b9bec6; }
text.label { font-size: 19px; font-weight: 600; letter-spacing: 0.02em; }
path.combo { stroke: #93c5fd; }
@media (prefers-color-scheme: dark) {
  svg.keymap { background-color: #0d1117; fill: #e6edf3; color: #e6edf3; }
  rect.key { fill: #1a2029; }
  rect.key, rect.combo { stroke: #343b45; }
  rect.side { filter: brightness(85%); }
  rect.held, rect.combo.held { fill: #3b2f63; stroke: #8b5cf6; }
  path.combo-outline, path.combo-leader { stroke: #e0a82e; }
  rect.combo { fill: #2a2312; stroke: #e0a82e; }
  text.combo.hold { fill: #b8a468; }
  .knob rect.combo { fill: #12251c; stroke: #46b37a; }
  path.combo-leader.knob { stroke: #46b37a; }
  rect.encoder { fill: #16281f; }
  rect.encoder.side { stroke: #46b37a; fill: #101c15; }
  rect.trackpad.side { stroke: #d9739f; }
  .pad rect.combo { fill: #2b141f; stroke: #d9739f; }
  path.combo-leader.pad { stroke: #d9739f; }
  .pad text.combo.hold { fill: #c08fa2; }
  .note rect.combo { fill: #121d33; stroke: #5b8fe6; }
  path.combo-outline.note, path.combo-leader.note { stroke: #5b8fe6; }
  .note text.note-label { fill: #98a2b3; }
  .note text.note-chord, .note text.note-mark.tap { fill: #7dabf0; }
  .note text.note-mark.hold { fill: #a78bfa; }
  .note path.note-rule { stroke: #7dabf0; }
  .note text.note-key { fill: #6d7788; }
  .knob text.combo.shifted, .knob text.combo.hold { fill: #7fae95; }
  text.br { fill: #a78bfa; }
  text.bl { fill: #7d848d; }
  text.hold { fill: #a78bfa; }
  text.shifted { fill: #8b929c; }
  text.trans { fill: #4d545e; }
  text.label, text.footer { stroke: #0d1117; }
  path.combo { stroke: #2f6fb0; }
}
</style>
<g transform="translate(20, 0)" class="layer-Function">
<text x="0" y="16" class="label" id="Function">Function</text>
<g transform="translate(-4.0, 60.6)">
<g transform="translate(30, 75)" class="key keypos-0">
<rect rx="6" ry="6" x="-26" y="-26" width="52" height="52" class="key side"/>
<rect rx="4" ry="4" x="-20" y="-24" width="40" height="40" class="key"/>
<text x="0" y="-4" class="key tap">F19</text>
<text x="-24" y="24" class="key bl">sleep</text>
</g>
<g transform="translate(90, 75)" class="key keypos-1">
<rect rx="6" ry="6" x="-26" y="-26" width="52" height="52" class="key side"/>
<rect rx="4" ry="4" x="-20" y="-24" width="40" height="40" class="key"/>
<text x="0" y="-4" class="key tap">F1</text>
</g>
<g transform="translate(150, 45)" class="key keypos-2">
<rect rx="6" ry="6" x="-26" y="-26" width="52" height="52" class="key side"/>
<rect rx="4" ry="4" x="-20" y="-24" width="40" height="40" class="key"/>
<text x="0" y="-4" class="key tap">F2</text>
</g>
<g transform="translate(210, 30)" class="key keypos-3">
<rect rx="6" ry="6" x="-26" y="-26" width="52" height="52" class="key side"/>
<rect rx="4" ry="4" x="-20" y="-24" width="40" height="40" class="key"/>
<text x="0" y="-4" class="key tap">F3</text>
</g>
<g transform="translate(270, 45)" class="key keypos-4">
<rect rx="6" ry="6" x="-26" y="-26" width="52" height="52" class="key side"/>
<rect rx="4" ry="4" x="-20" y="-24" width="40" height="40" class="key"/>
<text x="0" y="-4" class="key tap">F4</text>
</g>
<g transform="translate(330, 52)" class="key keypos-5">
<rect rx="6" ry="6" x="-26" y="-26" width="52" height="52" class="key side"/>
<rect rx="4" ry="4" x="-20" y="-24" width="40" height="40" class="key"/>
</g>
<g transform="translate(690, 52)" class="key keypos-6">
<rect rx="6" ry="6" x="-26" y="-26" width="52" height="52" class="key side"/>
<rect rx="4" ry="4" x="-20" y="-24" width="40" height="40" class="key"/>
<g transform="translate(-8, -12) scale(0.7083)" class="key tap glyph tabler:sun-high" fill="none" stroke="currentColor" stroke-width="2" stroke-linecap="round" stroke-linejoin="round"><path stroke="none" d="M0 0h24v24H0z" fill="none" />
  <path d="M14.828 14.828a4 4 0 1 0 -5.656 -5.656a4 4 0 0 0 5.656 5.656" />
  <path d="M6.343 17.657l-1.414 1.414" />
  <path d="M6.343 6.343l-1.414 -1.414" />
  <path d="M17.657 6.343l1.414 -1.414" />
  <path d="M17.657 17.657l1.414 1.414" />
  <path d="M4 12h-2" />
  <path d="M12 4v-2" />
  <path d="M20 12h2" />
  <path d="M12 20v2" /></g>
</g>
<g transform="translate(750, 45)" class="key keypos-7">
<rect rx="6" ry="6" x="-26" y="-26" width="52" height="52" class="key side"/>
<rect rx="4" ry="4" x="-20" y="-24" width="40" height="40" class="key"/>
<g transform="translate(-8, -12) scale(0.7083)" class="key tap glyph tabler:volume-2" fill="none" stroke="currentColor" stroke-width="2" stroke-linecap="round" stroke-linejoin="round"><path stroke="none" d="M0 0h24v24H0z" fill="none" />
  <path d="M15 8a5 5 0 0 1 0 8" />
  <path d="M6 15h-2a1 1 0 0 1 -1 -1v-4a1 1 0 0 1 1 -1h2l3.5 -4.5a.8 .8 0 0 1 1.5 .5v14a.8 .8 0 0 1 -1.5 .5l-3.5 -4.5" /></g>
</g>
<g transform="translate(810, 30)" class="key keypos-8">
<rect rx="6" ry="6" x="-26" y="-26" width="52" height="52" class="key side"/>
<rect rx="4" ry="4" x="-20" y="-24" width="40" height="40" class="key"/>
<g transform="translate(-8, -12) scale(0.7083)" class="key tap glyph tabler:volume-off" fill="none" stroke="currentColor" stroke-width="2" stroke-linecap="round" stroke-linejoin="round"><path stroke="none" d="M0 0h24v24H0z" fill="none" />
  <path d="M15 8a5 5 0 0 1 1.912 4.934m-1.377 2.602a5 5 0 0 1 -.535 .464" />
  <path d="M17.7 5a9 9 0 0 1 2.362 11.086m-1.676 2.299a9 9 0 0 1 -.686 .615" />
  <path d="M9.069 5.054l.431 -.554a.8 .8 0 0 1 1.5 .5v2m0 4v8a.8 .8 0 0 1 -1.5 .5l-3.5 -4.5h-2a1 1 0 0 1 -1 -1v-4a1 1 0 0 1 1 -1h2l1.294 -1.664" />
  <path d="M3 3l18 18" /></g>
</g>
<g transform="translate(870, 45)" class="key keypos-9">
<rect rx="6" ry="6" x="-26" y="-26" width="52" height="52" class="key side"/>
<rect rx="4" ry="4" x="-20" y="-24" width="40" height="40" class="key"/>
<g transform="translate(-8, -12) scale(0.7083)" class="key tap glyph tabler:volume" fill="none" stroke="currentColor" stroke-width="2" stroke-linecap="round" stroke-linejoin="round"><path stroke="none" d="M0 0h24v24H0z" fill="none" />
  <path d="M15 8a5 5 0 0 1 0 8" />
  <path d="M17.7 5a9 9 0 0 1 0 14" />
  <path d="M6 15h-2a1 1 0 0 1 -1 -1v-4a1 1 0 0 1 1 -1h2l3.5 -4.5a.8 .8 0 0 1 1.5 .5v14a.8 .8 0 0 1 -1.5 .5l-3.5 -4.5" /></g>
</g>
<g transform="translate(930, 75)" class="key keypos-10">
<rect rx="6" ry="6" x="-26" y="-26" width="52" height="52" class="key side"/>
<rect rx="4" ry="4" x="-20" y="-24" width="40" height="40" class="key"/>
<text x="0" y="-4" class="key tap">
<tspan x="0" dy="-0.6em">led</tspan><tspan x="0" dy="1.2em">−</tspan>
</text>
</g>
<g transform="translate(990, 75)" class="key keypos-11">
<rect rx="6" ry="6" x="-26" y="-26" width="52" height="52" class="key side"/>
<rect rx="4" ry="4" x="-20" y="-24" width="40" height="40" class="key"/>
<text x="0" y="-4" class="key tap">
<tspan x="0" dy="-0.6em">led</tspan><tspan x="0" dy="1.2em">+</tspan>
</text>
</g>
<g transform="translate(30, 135)" class="key keypos-12">
<rect rx="6" ry="6" x="-26" y="-26" width="52" height="52" class="key side"/>
<rect rx="4" ry="4" x="-20" y="-24" width="40" height="40" class="key"/>
<text x="0" y="-4" class="key tap">⇪</text>
</g>
<g transform="translate(90, 135)" class="key keypos-13">
<rect rx="6" ry="6" x="-26" y="-26" width="52" height="52" class="key side"/>
<rect rx="4" ry="4" x="-20" y="-24" width="40" height="40" class="key"/>
<text x="0" y="-4" class="key tap">F5</text>
</g>
<g transform="translate(150, 105)" class="key keypos-14">
<rect rx="6" ry="6" x="-26" y="-26" width="52" height="52" class="key side"/>
<rect rx="4" ry="4" x="-20" y="-24" width="40" height="40" class="key"/>
<text x="0" y="-4" class="key tap">F6</text>
</g>
<g transform="translate(210, 90)" class="key keypos-15">
<rect rx="6" ry="6" x="-26" y="-26" width="52" height="52" class="key side"/>
<rect rx="4" ry="4" x="-20" y="-24" width="40" height="40" class="key"/>
<text x="0" y="-4" class="key tap">F7</text>
</g>
<g transform="translate(270, 105)" class="key keypos-16">
<rect rx="6" ry="6" x="-26" y="-26" width="52" height="52" class="key side"/>
<rect rx="4" ry="4" x="-20" y="-24" width="40" height="40" class="key"/>
<text x="0" y="-4" class="key tap">F8</text>
</g>
<g transform="translate(330, 112)" class="key keypos-17">
<rect rx="6" ry="6" x="-26" y="-26" width="52" height="52" class="key side"/>
<rect rx="4" ry="4" x="-20" y="-24" width="40" height="40" class="key"/>
<text x="0" y="-4" class="key tap">⌘⇧3</text>
<text x="-24" y="24" class="key bl"><tspan style="font-size: 70%">screenshot</tspan></text>
</g>
<g transform="translate(690, 112)" class="key keypos-18">
<rect rx="6" ry="6" x="-26" y="-26" width="52" height="52" class="key side"/>
<rect rx="4" ry="4" x="-20" y="-24" width="40" height="40" class="key"/>
<g transform="translate(-8, -12) scale(0.7083)" class="key tap glyph tabler:sun-low" fill="none" stroke="currentColor" stroke-width="2" stroke-linecap="round" stroke-linejoin="round"><path stroke="none" d="M0 0h24v24H0z" fill="none" />
  <path d="M8 12a4 4 0 1 0 8 0a4 4 0 1 0 -8 0" />
  <path d="M4 12h.01" />
  <path d="M12 4v.01" />
  <path d="M20 12h.01" />
  <path d="M12 20v.01" />
  <path d="M6.31 6.31l-.01 -.01" />
  <path d="M17.71 6.31l-.01 -.01" />
  <path d="M17.7 17.7l.01 .01" />
  <path d="M6.3 17.7l.01 .01" /></g>
</g>
<g transform="translate(750, 105)" class="key keypos-19">
<rect rx="6" ry="6" x="-26" y="-26" width="52" height="52" class="key side"/>
<rect rx="4" ry="4" x="-20" y="-24" width="40" height="40" class="key"/>
<g transform="translate(-8, -12) scale(0.7083)" class="key tap glyph tabler:player-track-prev" fill="none" stroke="currentColor" stroke-width="2" stroke-linecap="round" stroke-linejoin="round"><path stroke="none" d="M0 0h24v24H0z" fill="none" />
  <path d="M21 5v14l-8 -7l8 -7" />
  <path d="M10 5v14l-8 -7l8 -7" /></g>
</g>
<g transform="translate(810, 90)" class="key keypos-20">
<rect rx="6" ry="6" x="-26" y="-26" width="52" height="52" class="key side"/>
<rect rx="4" ry="4" x="-20" y="-24" width="40" height="40" class="key"/>
<g transform="translate(-8, -12) scale(0.7083)" class="key tap glyph tabler:player-play" fill="none" stroke="currentColor" stroke-width="2" stroke-linecap="round" stroke-linejoin="round"><path stroke="none" d="M0 0h24v24H0z" fill="none" />
  <path d="M7 4v16l13 -8l-13 -8" /></g>
</g>
<g transform="translate(870, 105)" class="key keypos-21">
<rect rx="6" ry="6" x="-26" y="-26" width="52" height="52" class="key side"/>
<rect rx="4" ry="4" x="-20" y="-24" width="40" height="40" class="key"/>
<g transform="translate(-8, -12) scale(0.7083)" class="key tap glyph tabler:player-track-next" fill="none" stroke="currentColor" stroke-width="2" stroke-linecap="round" stroke-linejoin="round"><path stroke="none" d="M0 0h24v24H0z" fill="none" />
  <path d="M3 5v14l8 -7l-8 -7" />
  <path d="M14 5v14l8 -7l-8 -7" /></g>
</g>
<g transform="translate(930, 135)" class="key keypos-22">
<rect rx="6" ry="6" x="-26" y="-26" width="52" height="52" class="key side"/>
<rect rx="4" ry="4" x="-20" y="-24" width="40" height="40" class="key"/>
<text x="0" y="-4" class="key tap">
<tspan x="0" dy="-0.6em">hue</tspan><tspan x="0" dy="1.2em">−</tspan>
</text>
</g>
<g transform="translate(990, 135)" class="key keypos-23">
<rect rx="6" ry="6" x="-26" y="-26" width="52" height="52" class="key side"/>
<rect rx="4" ry="4" x="-20" y="-24" width="40" height="40" class="key"/>
<text x="0" y="-4" class="key tap">
<tspan x="0" dy="-0.6em">hue</tspan><tspan x="0" dy="1.2em">+</tspan>
</text>
</g>
<g transform="translate(30, 195)" class="key keypos-24">
<rect rx="6" ry="6" x="-26" y="-26" width="52" height="52" class="key side"/>
<rect rx="4" ry="4" x="-20" y="-24" width="40" height="40" class="key"/>
</g>
<g transform="translate(90, 195)" class="key keypos-25">
<rect rx="6" ry="6" x="-26" y="-26" width="52" height="52" class="key side"/>
<rect rx="4" ry="4" x="-20" y="-24" width="40" height="40" class="key"/>
<text x="0" y="-4" class="key tap">F9</text>
</g>
<g transform="translate(150, 165)" class="key keypos-26">
<rect rx="6" ry="6" x="-26" y="-26" width="52" height="52" class="key side"/>
<rect rx="4" ry="4" x="-20" y="-24" width="40" height="40" class="key"/>
<text x="0" y="-4" class="key tap">F10</text>
</g>
<g transform="translate(210, 150)" class="key keypos-27">
<rect rx="6" ry="6" x="-26" y="-26" width="52" height="52" class="key side"/>
<rect rx="4" ry="4" x="-20" y="-24" width="40" height="40" class="key"/>
<text x="0" y="-4" class="key tap">F11</text>
</g>
<g transform="translate(270, 165)" class="key keypos-28">
<rect rx="6" ry="6" x="-26" y="-26" width="52" height="52" class="key side"/>
<rect rx="4" ry="4" x="-20" y="-24" width="40" height="40" class="key"/>
<text x="0" y="-4" class="key tap">F12</text>
</g>
<g transform="translate(330, 172)" class="key keypos-29">
<rect rx="6" ry="6" x="-26" y="-26" width="52" height="52" class="key side"/>
<rect rx="4" ry="4" x="-20" y="-24" width="40" height="40" class="key"/>
<text x="0" y="-4" class="key tap">⌘⇧4</text>
<text x="-24" y="24" class="key bl">snip</text>
</g>
<g transform="translate(395, 207) rotate(30.0)" class="key keypos-30">
<rect rx="6" ry="6" x="-26" y="-26" width="52" height="52" class="key side"/>
<rect rx="4" ry="4" x="-20" y="-24" width="40" height="40" class="key"/>
<text x="0" y="-4" class="key tap">⌘Z</text>
<text x="-24" y="24" class="key bl">undo</text>
</g>
<g transform="translate(459, 256) rotate(45.0)" class="key keypos-31">
<rect rx="6" ry="6" x="-26" y="-26" width="52" height="52" class="key side"/>
<rect rx="4" ry="4" x="-20" y="-24" width="40" height="40" class="key"/>
<text x="0" y="-4" class="key tap">⌘⇧Z</text>
<text x="-24" y="24" class="key bl">redo</text>
</g>
<g transform="translate(561, 256) rotate(-45.0)" class="key keypos-32">
<rect rx="6" ry="6" x="-26" y="-26" width="52" height="52" class="key side"/>
<rect rx="4" ry="4" x="-20" y="-24" width="40" height="40" class="key"/>
<g transform="translate(-8, -12) scale(0.7083)" class="key tap glyph tabler:clipboard" fill="none" stroke="currentColor" stroke-width="2" stroke-linecap="round" stroke-linejoin="round"><path stroke="none" d="M0 0h24v24H0z" fill="none" />
  <path d="M9 5h-2a2 2 0 0 0 -2 2v12a2 2 0 0 0 2 2h10a2 2 0 0 0 2 -2v-12a2 2 0 0 0 -2 -2h-2" />
  <path d="M9 5a2 2 0 0 1 2 -2h2a2 2 0 0 1 2 2a2 2 0 0 1 -2 2h-2a2 2 0 0 1 -2 -2" /></g>
<text x="-24" y="24" class="key bl">→ Mac 1</text>
</g>
<g transform="translate(625, 207) rotate(-30.0)" class="key keypos-33">
<rect rx="6" ry="6" x="-26" y="-26" width="52" height="52" class="key side"/>
<rect rx="4" ry="4" x="-20" y="-24" width="40" height="40" class="key"/>
<g transform="translate(-8, -12) scale(0.7083)" class="key tap glyph tabler:clipboard" fill="none" stroke="currentColor" stroke-width="2" stroke-linecap="round" stroke-linejoin="round"><path stroke="none" d="M0 0h24v24H0z" fill="none" />
  <path d="M9 5h-2a2 2 0 0 0 -2 2v12a2 2 0 0 0 2 2h10a2 2 0 0 0 2 -2v-12a2 2 0 0 0 -2 -2h-2" />
  <path d="M9 5a2 2 0 0 1 2 -2h2a2 2 0 0 1 2 2a2 2 0 0 1 -2 2h-2a2 2 0 0 1 -2 -2" /></g>
<text x="-24" y="24" class="key bl">→ Mac 2</text>
</g>
<g transform="translate(690, 172)" class="key keypos-34">
<rect rx="6" ry="6" x="-26" y="-26" width="52" height="52" class="key side"/>
<rect rx="4" ry="4" x="-20" y="-24" width="40" height="40" class="key"/>
<g transform="translate(-8, -12) scale(0.7083)" class="key tap glyph tabler:bluetooth-off" fill="none" stroke="currentColor" stroke-width="2" stroke-linecap="round" stroke-linejoin="round"><path stroke="none" d="M0 0h24v24H0z" fill="none" />
  <path d="M3 3l18 18" />
  <path d="M16.438 16.45l-4.438 3.55v-8m0 -4v-4l5 4l-2.776 2.22m-2.222 1.779l-5 4" /></g>
<text x="-24" y="24" class="key bl">reset</text>
<text x="24" y="24" class="key br">1s</text>
</g>
<g transform="translate(750, 165)" class="key keypos-35">
<rect rx="6" ry="6" x="-26" y="-26" width="52" height="52" class="key side"/>
<rect rx="4" ry="4" x="-20" y="-24" width="40" height="40" class="key"/>
<g transform="translate(-8, -12) scale(0.7083)" class="key tap glyph tabler:bluetooth" fill="none" stroke="currentColor" stroke-width="2" stroke-linecap="round" stroke-linejoin="round"><path stroke="none" d="M0 0h24v24H0z" fill="none" />
  <path d="M7 8l10 8l-5 4l0 -16l5 4l-10 8" /></g>
<text x="-24" y="24" class="key bl">prof 1</text>
</g>
<g transform="translate(810, 150)" class="key keypos-36">
<rect rx="6" ry="6" x="-26" y="-26" width="52" height="52" class="key side"/>
<rect rx="4" ry="4" x="-20" y="-24" width="40" height="40" class="key"/>
<g transform="translate(-8, -12) scale(0.7083)" class="key tap glyph tabler:bluetooth" fill="none" stroke="currentColor" stroke-width="2" stroke-linecap="round" stroke-linejoin="round"><path stroke="none" d="M0 0h24v24H0z" fill="none" />
  <path d="M7 8l10 8l-5 4l0 -16l5 4l-10 8" /></g>
<text x="-24" y="24" class="key bl">prof 2</text>
</g>
<g transform="translate(870, 165)" class="key keypos-37">
<rect rx="6" ry="6" x="-26" y="-26" width="52" height="52" class="key side"/>
<rect rx="4" ry="4" x="-20" y="-24" width="40" height="40" class="key"/>
<g transform="translate(-8, -12) scale(0.7083)" class="key tap glyph tabler:bluetooth" fill="none" stroke="currentColor" stroke-width="2" stroke-linecap="round" stroke-linejoin="round"><path stroke="none" d="M0 0h24v24H0z" fill="none" />
  <path d="M7 8l10 8l-5 4l0 -16l5 4l-10 8" /></g>
<text x="-24" y="24" class="key bl">prof 3</text>
</g>
<g transform="translate(930, 195)" class="key keypos-38">
<rect rx="6" ry="6" x="-26" y="-26" width="52" height="52" class="key side"/>
<rect rx="4" ry="4" x="-20" y="-24" width="40" height="40" class="key"/>
<text x="0" y="-4" class="key tap">
<tspan x="0" dy="-0.6em">sat</tspan><tspan x="0" dy="1.2em">−</tspan>
</text>
</g>
<g transform="translate(990, 195)" class="key keypos-39">
<rect rx="6" ry="6" x="-26" y="-26" width="52" height="52" class="key side"/>
<rect rx="4" ry="4" x="-20" y="-24" width="40" height="40" class="key"/>
<text x="0" y="-4" class="key tap">
<tspan x="0" dy="-0.6em">sat</tspan><tspan x="0" dy="1.2em">+</tspan>
</text>
</g>
<g transform="translate(180, 225)" class="key encoder keypos-40">
<rect rx="6" ry="6" x="-26" y="-26" width="52" height="52" class="key encoder side"/>
<rect rx="4" ry="4" x="-20" y="-24" width="40" height="40" class="key encoder"/>
</g>
<g transform="translate(240, 225)" class="key keypos-41">
<rect rx="6" ry="6" x="-26" y="-26" width="52" height="52" class="key side"/>
<rect rx="4" ry="4" x="-20" y="-24" width="40" height="40" class="key"/>
</g>
<g transform="translate(305, 234) rotate(15.0)" class="key keypos-42">
<rect rx="6" ry="6" x="-26" y="-26" width="52" height="52" class="key side"/>
<rect rx="4" ry="4" x="-20" y="-24" width="40" height="40" class="key"/>
<text x="0" y="-4" class="key tap">⌘X</text>
<text x="-24" y="24" class="key bl">cut</text>
</g>
<g transform="translate(365, 259) rotate(30.0)" class="key keypos-43">
<rect rx="6" ry="6" x="-26" y="-26" width="52" height="52" class="key side"/>
<rect rx="4" ry="4" x="-20" y="-24" width="40" height="40" class="key"/>
<text x="0" y="-4" class="key tap">⌘C</text>
<text x="-24" y="24" class="key bl">copy</text>
</g>
<g transform="translate(417, 298) rotate(45.0)" class="key keypos-44">
<rect rx="6" ry="6" x="-26" y="-26" width="52" height="52" class="key side"/>
<rect rx="4" ry="4" x="-20" y="-24" width="40" height="40" class="key"/>
<text x="0" y="-4" class="key tap">⌘V</text>
<text x="-24" y="24" class="key bl">paste</text>
</g>
<g transform="translate(603, 298) rotate(-45.0)" class="key held keypos-45">
<rect rx="6" ry="6" x="-26" y="-26" width="52" height="52" class="key held side"/>
<rect rx="4" ry="4" x="-20" y="-24" width="40" height="40" class="key held"/>
</g>
<g transform="translate(655, 259) rotate(-30.0)" class="key keypos-46">
<rect rx="6" ry="6" x="-26" y="-26" width="52" height="52" class="key side"/>
<rect rx="4" ry="4" x="-20" y="-24" width="40" height="40" class="key"/>
</g>
<g transform="translate(715, 234) rotate(-15.0)" class="key keypos-47">
<rect rx="6" ry="6" x="-26" y="-26" width="52" height="52" class="key side"/>
<rect rx="4" ry="4" x="-20" y="-24" width="40" height="40" class="key"/>
</g>
<g transform="translate(780, 225)" class="key keypos-48">
<rect rx="6" ry="6" x="-26" y="-26" width="52" height="52" class="key side"/>
<rect rx="4" ry="4" x="-20" y="-24" width="40" height="40" class="key"/>
</g>
<g transform="translate(840, 225)" class="key encoder keypos-49">
<rect rx="6" ry="6" x="-26" y="-26" width="52" height="52" class="key encoder side"/>
<rect rx="4" ry="4" x="-20" y="-24" width="40" height="40" class="key encoder"/>
</g>
<g transform="translate(588, 114)" class="key trackpad keypos-50">
<rect rx="6" ry="6" x="-56" y="-56" width="112" height="112" class="key trackpad side"/>
<rect rx="4" ry="4" x="-50" y="-54" width="100" height="100" class="key trackpad"/>
</g>
<path d="M180.0,265.0 L180.0,257.0" class="combo-leader knob"/>
<path d="M557.9,41.4 L562.3,52.0" class="combo-leader pad"/>
<g class="combo knob combopos-0" transform="translate(0.0,80.0)">
<rect rx="6" ry="6" x="114" y="185" width="132" height="80" class="combo knob"/>
<text x="180" y="225" class="combo knob tap">
<tspan x="180" dy="-0.6em">Word</tspan><tspan x="180" dy="1.2em">jump</tspan>
</text>
<text x="180" y="252" class="combo knob hold">↺ ⌥←</text>
<text x="180" y="198" class="combo knob shifted">↻ ⌥→</text>
</g>
<g class="combo pad combopos-1" transform="translate(-42.1,-101.6)">
<rect rx="6" ry="6" x="522" y="85" width="132" height="58" class="combo pad"/>
<text x="588" y="114" class="combo pad tap">Pointer</text>
<text x="588" y="141" class="combo pad hold">2:1</text>
</g>
</g>
</g>
</svg>
